# xmcd CD database file
# Copyright (C) 1993-1998 Ti Kan
#
# Track frame offsets:
#	182
#	13085
#	22520
#	34197
#	45950
#	59365
#	71252
#	83637
#	94735
#	105492
#	117020
#	128547
#	142900
#	153032
#	166792
#	179462
#	190045
#	202232
#	211957
#	223860
#	235662
#	247880
#	260082
#	271782
#	284262
#	296837
#	309092
#	318970
#
# Disc length: 4393 seconds
#
# Revision: 2
# Processed by: cddbd v1.4b41PL1 Copyright (c) Steve Scherf et al.
# Submitted via: CDmax 1.5.3
#
DISCID=7111271c
DTITLE=Anthologies - 55 Original Country Classics(Disk 2)
DYEAR=1900
DGENRE=
TTITLE0=Whole Lotta Shakin' Going On (Jerry Lee Lewis)
TTITLE1=Lest's Think About Living (Bob Luman)
TTITLE2=Softly And Tenderly (I'll Hold You In My Arms) (Lewis Pruitt)
TTITLE3=Misery Loves Company (Porter Wagoner)
TTITLE4=I Don't Hurt Anymore (Hank Snow)
TTITLE5=The End Of The World (Skeeter Davis)
TTITLE6=Lovesick Blues (Hank Williams)
TTITLE7=Devoted To You (Everly Brothers)
TTITLE8=Walk On By (Leroy Van Dyke)
TTITLE9=Dear John Letter (Jean Shepard and Ferlin Husky)
TTITLE10=Slowly (Webb Pierce)
TTITLE11=Country Music Is Here To Stay (Simon Crum)
TTITLE12=You're The Only World I Know (Sonny James)
TTITLE13=Goodnight, Irene (Ernest Tubb and Red Foley)
TTITLE14=Making Believe (Kitty Wells)
TTITLE15=Wings Of A Dove (Ferlin Husky)
TTITLE16=Wild Side Of Life (Hank Thompson)
TTITLE17=I Don't Beleive You've Met My Baby (Louvin Brothers)
TTITLE18=Right Or Wrong (Wanda Jackson)
TTITLE19=Shot-Gun Boogie (Tennessee Ernie Ford)
TTITLE20=Release Me (Jimmy Heap)
TTITLE21=Girl On The Billboard (Del Reeves)
TTITLE22=Country Girl (Faron Young)
TTITLE23=Don't Let The Stars Get In Your Eyes (Skeets McDonald)
TTITLE24=Old Rivers (Walter Brennan)
TTITLE25=Lonesome (Hawkshaw Hawkins)
TTITLE26=Slippin' Around (Margaret Whitting and Jimmy Wakley)
TTITLE27=Kisses Sweeter Than Wine (Jimmy Rodgers)
EXTD=
EXTT0=
EXTT1=
EXTT2=
EXTT3=
EXTT4=
EXTT5=
EXTT6=
EXTT7=
EXTT8=
EXTT9=
EXTT10=
EXTT11=
EXTT12=
EXTT13=
EXTT14=
EXTT15=
EXTT16=
EXTT17=
EXTT18=
EXTT19=
EXTT20=
EXTT21=
EXTT22=
EXTT23=
EXTT24=
EXTT25=
EXTT26=
EXTT27=
PLAYORDER=
